<svg xmlns="http://www.w3.org/2000/svg" viewBox="0 0 128 128" role="img" aria-labelledby="title desc">
  <title id="title">わたしの選挙 ロゴマーク印章案</title>
  <desc id="desc">票の文字を中心に据えた、重厚な紋章と判子を思わせる印章風のロゴマーク</desc>
  <defs>
    <linearGradient id="sealField" x1="0%" y1="0%" x2="100%" y2="100%">
      <stop offset="0%" stop-color="#5d1114" />
      <stop offset="55%" stop-color="#7a181c" />
      <stop offset="100%" stop-color="#430b0d" />
    </linearGradient>
    <linearGradient id="sealRim" x1="0%" y1="0%" x2="0%" y2="100%">
      <stop offset="0%" stop-color="#f5dc9d" />
      <stop offset="52%" stop-color="#d8b36a" />
      <stop offset="100%" stop-color="#b78741" />
    </linearGradient>
    <radialGradient id="sealGlow" cx="34%" cy="26%" r="78%">
      <stop offset="0%" stop-color="#b02a2f" stop-opacity="0.34" />
      <stop offset="100%" stop-color="#5a1013" stop-opacity="0" />
    </radialGradient>
    <filter id="sealShadow" x="-20%" y="-20%" width="140%" height="160%">
      <feDropShadow dx="0" dy="10" stdDeviation="8" flood-color="#05080b" flood-opacity="0.34" />
    </filter>
  </defs>

  <g filter="url(#sealShadow)">
    <path
      d="M64 10
         C84 10 100 14 110 22
         C118 32 118 48 118 64
         C118 80 118 96 110 106
         C100 114 84 118 64 118
         C44 118 28 114 18 106
         C10 96 10 80 10 64
         C10 48 10 32 18 22
         C28 14 44 10 64 10 Z"
      fill="url(#sealField)"
      stroke="url(#sealRim)"
      stroke-width="3.5"
    />

    <path
      d="M64 20
         C80 20 93 23 101 29
         C107 37 107 50 107 64
         C107 78 107 91 101 99
         C93 105 80 108 64 108
         C48 108 35 105 27 99
         C21 91 21 78 21 64
         C21 50 21 37 27 29
         C35 23 48 20 64 20 Z"
      fill="none"
      stroke="#f2d7a0"
      stroke-opacity="0.76"
      stroke-width="1.8"
    />

    <circle cx="64" cy="64" r="33" fill="url(#sealGlow)" />
    <circle cx="64" cy="64" r="30.5" fill="none" stroke="#f0cf8d" stroke-opacity="0.88" stroke-width="1.6" />
    <circle cx="64" cy="64" r="24.5" fill="none" stroke="#f0cf8d" stroke-opacity="0.42" stroke-width="1.1" />

    <g fill="#f3d89c">
      <path d="M64 27l3.6 6.8L64 40l-3.6-6.2z" />
      <path d="M64 88l3.6 6.2L64 101l-3.6-6.8z" />
      <path d="M27 64l6.8-3.6L40 64l-6.2 3.6z" />
      <path d="M88 64l6.2-3.6L101 64l-6.8 3.6z" />
    </g>

    <g fill="none" stroke="#f3d89c" stroke-linecap="round" stroke-width="1.35" opacity="0.82">
      <path d="M64 31v7" />
      <path d="M64 90v7" />
      <path d="M31 64h7" />
      <path d="M90 64h7" />
    </g>

    <text
      x="64"
      y="77"
      text-anchor="middle"
      font-family="Yu Mincho, Hiragino Mincho ProN, serif"
      font-size="44"
      font-weight="700"
      letter-spacing="0"
      fill="#f8ebc8"
    >票</text>

    <path
      d="M64 16
         C82 16 96 19 104 26
         C95 20 81 18 64 18
         C47 18 33 20 24 26
         C32 19 46 16 64 16 Z"
      fill="#fff1cb"
      opacity="0.28"
    />
  </g>
</svg>
